<?xml version="1.0" standalone="no"?>
<!DOCTYPE svg PUBLIC "-//W3C//DTD SVG 20010904//EN"
 "http://www.w3.org/TR/2001/REC-SVG-20010904/DTD/svg10.dtd">
<svg version="1.0" xmlns="http://www.w3.org/2000/svg"
 width="741.000000pt" height="452.000000pt" viewBox="0 0 741.000000 452.000000"
 preserveAspectRatio="xMidYMid meet">

<g transform="translate(0.000000,452.000000) scale(0.100000,-0.100000)"
fill="#000000" stroke="none">
<path d="M3590 2260 l0 -2260 1910 0 1910 0 0 2260 0 2260 -1910 0 -1910 0 0
-2260z"/>
<path d="M1396 3385 c-84 -28 -114 -50 -140 -100 -20 -38 -20 -54 -18 -784 3
-751 5 -793 39 -833 8 -9 22 -32 31 -50 14 -28 24 -34 62 -40 25 -3 369 -9
765 -14 l720 -7 69 23 c83 27 148 85 165 145 16 58 15 1473 -1 1527 -15 49
-101 125 -165 144 -38 11 -177 14 -752 14 l-706 -1 -69 -24z m1506 -222 c18
-22 30 -53 20 -53 -4 0 -15 9 -25 20 -16 19 -30 20 -509 22 -882 3 -968 4
-968 18 0 7 251 10 733 10 687 0 735 -1 749 -17z m-105 -190 c12 -7 31 -25 42
-39 21 -26 21 -35 21 -595 l0 -569 -704 0 -705 0 -20 26 c-21 26 -21 35 -21
610 0 536 1 583 17 586 9 2 316 1 682 -2 505 -4 671 -8 688 -17z"/>
<path d="M1190 3099 c-6 -24 -15 -57 -20 -74 -5 -17 -10 -344 -12 -730 -2
-733 0 -772 42 -855 24 -47 45 -64 114 -95 l57 -25 737 2 737 3 60 31 c80 41
113 88 122 173 l6 64 -34 -25 c-19 -14 -49 -30 -68 -37 -24 -8 -254 -11 -801
-11 l-767 0 -36 28 c-38 28 -70 84 -93 163 -11 36 -15 192 -18 734 -3 378 -7
690 -10 692 -3 3 -10 -15 -16 -38z"/>
</g>
</svg>
